<?xml version="1.0" encoding="utf-8"?>
<!-- Generator: Adobe Illustrator 16.0.2, SVG Export Plug-In . SVG Version: 6.00 Build 0)  -->
<!DOCTYPE svg PUBLIC "-//W3C//DTD SVG 1.1//EN" "http://www.w3.org/Graphics/SVG/1.1/DTD/svg11.dtd">
<svg version="1.1" id="Слой_1" xmlns="http://www.w3.org/2000/svg" xmlns:xlink="http://www.w3.org/1999/xlink" x="0px" y="0px"
	 width="10px" height="10px" viewBox="0 0 10 10" enable-background="new 0 0 10 10" xml:space="preserve">
<path fill-rule="evenodd" clip-rule="evenodd" fill="#999999" d="M5,0.748c2.348,0,4.252,1.904,4.252,4.252
	c0,2.349-1.904,4.252-4.252,4.252C2.652,9.252,0.748,7.349,0.748,5C0.748,2.652,2.652,0.748,5,0.748L5,0.748z M4.371,5.002
	c0.012,0.016,0.005,0.124,0.005,0.145l0,2.288h0.993c0.005-0.601,0-1.221,0-1.825c0-0.009-0.002-0.587,0.001-0.599
	c0.002-0.007,0.002-0.006,0.004-0.01c0.002,0,0.631,0.005,0.653,0l0.012-0.003l0.088-0.835H5.372
	c-0.003-0.124,0.001-0.25,0.001-0.374c0-0.113-0.002-0.252,0.065-0.314l0.684-0.069L6.12,2.567c-0.129-0.007-0.283,0-0.415,0
	c-0.137,0-0.277-0.003-0.412,0.006C5.036,2.59,4.828,2.666,4.677,2.794c-0.218,0.35-0.302,0.05-0.304,1.369H3.875l0,0.839
	L4.371,5.002L4.371,5.002z"/>
</svg>
