<?xml version="1.0" encoding="utf-8"?>
<!-- Generator: Adobe Illustrator 16.0.2, SVG Export Plug-In . SVG Version: 6.00 Build 0)  -->
<!DOCTYPE svg PUBLIC "-//W3C//DTD SVG 1.1//EN" "http://www.w3.org/Graphics/SVG/1.1/DTD/svg11.dtd">
<svg version="1.1" id="Слой_1" xmlns="http://www.w3.org/2000/svg" xmlns:xlink="http://www.w3.org/1999/xlink" x="0px" y="0px"
	 width="10px" height="10px" viewBox="0 0 10 10" enable-background="new 0 0 10 10" xml:space="preserve">
<g>
	<path fill-rule="evenodd" clip-rule="evenodd" fill="#999999" d="M5.002,5.612c0.473-0.001,0.851-0.383,0.847-0.856
		C5.846,4.282,5.462,3.902,4.991,3.906C4.526,3.911,4.149,4.292,4.15,4.759C4.151,5.234,4.528,5.613,5.002,5.612z"/>
	<path fill-rule="evenodd" clip-rule="evenodd" fill="#999999" d="M5.1,6.139C4.713,6.165,4.368,6.05,4.081,5.788
		c-0.4-0.366-0.527-0.827-0.428-1.357c-0.126,0-0.238,0-0.359,0C3.291,4.458,3.288,4.478,3.288,4.499
		c-0.001,0.589-0.002,1.178,0,1.767c0,0.149,0.06,0.204,0.219,0.204c0.995,0.003,1.991,0.003,2.986,0
		c0.17,0,0.216-0.053,0.217-0.229c0.001-0.564,0-1.128,0-1.693c0-0.04,0-0.079,0-0.119c-0.131,0-0.243,0-0.363,0
		C6.531,5.411,5.836,6.089,5.1,6.139z"/>
	<path fill-rule="evenodd" clip-rule="evenodd" fill="#999999" d="M4.999,0.551c-2.307,0-4.177,1.885-4.177,4.211
		s1.87,4.21,4.177,4.21s4.178-1.885,4.178-4.21S7.306,0.551,4.999,0.551z M7.239,6.439c0,0.339-0.211,0.559-0.55,0.559
		c-1.128,0.004-2.256,0.004-3.385,0C2.973,6.996,2.762,6.782,2.76,6.448c-0.003-1.125-0.003-2.249,0-3.373
		C2.762,2.731,2.98,2.523,3.327,2.523c0.556,0,1.112,0,1.669,0c0.56,0,1.119,0,1.679,0c0.347,0,0.564,0.214,0.564,0.556
		C7.241,4.199,7.241,5.319,7.239,6.439z"/>
	<path fill-rule="evenodd" clip-rule="evenodd" fill="#999999" d="M6.043,3.894c0.079,0.001,0.157,0,0.235,0
		c0.083,0,0.166,0.001,0.248,0c0.115-0.001,0.18-0.061,0.183-0.174c0.003-0.166,0.003-0.331,0-0.497
		c-0.002-0.106-0.061-0.168-0.172-0.17c-0.165-0.002-0.331-0.001-0.495,0c-0.108,0-0.171,0.056-0.173,0.167
		c-0.003,0.169-0.004,0.339,0,0.509C5.871,3.838,5.937,3.892,6.043,3.894z"/>
</g>
</svg>
