<?xml version="1.0" encoding="utf-8"?>
<!-- Generator: Adobe Illustrator 16.0.2, SVG Export Plug-In . SVG Version: 6.00 Build 0)  -->
<!DOCTYPE svg PUBLIC "-//W3C//DTD SVG 1.1//EN" "http://www.w3.org/Graphics/SVG/1.1/DTD/svg11.dtd">
<svg version="1.1" id="Слой_1" xmlns="http://www.w3.org/2000/svg" xmlns:xlink="http://www.w3.org/1999/xlink" x="0px" y="0px"
	 width="10px" height="10px" viewBox="0 0 10 10" enable-background="new 0 0 10 10" xml:space="preserve">
<path fill-rule="evenodd" clip-rule="evenodd" fill="#999999" d="M5.194,0.547c2.335,0,4.226,1.891,4.226,4.223
	c0,2.335-1.891,4.225-4.226,4.225c-2.333,0-4.223-1.89-4.223-4.225C0.971,2.438,2.861,0.547,5.194,0.547L5.194,0.547z M7.576,4.794
	C7.594,4.778,7.58,4.8,7.594,4.767l0.035-0.12c0.184-0.006,0.309-0.02,0.457-0.079L8.393,4.36C8.291,4.358,8.186,4.385,8.02,4.361
	l-0.332-0.07c0.027-0.018,0.07-0.019,0.107-0.024C7.836,4.261,7.871,4.255,7.91,4.246c0.076-0.018,0.133-0.035,0.197-0.065
	l0.254-0.25C8.248,3.977,8.141,3.996,7.982,3.998c-0.076,0-0.354-0.003-0.379-0.072c-0.031-0.082-0.031-0.158-0.096-0.31
	C7.469,3.52,7.418,3.427,7.361,3.344c-0.115-0.172-0.26-0.315-0.428-0.423L6.23,2.724C6.275,2.682,6.441,2.648,6.5,2.632
	c0.313-0.083,0.285-0.197,0.211-0.218C6.613,2.387,6.377,2.475,6.271,2.507l0.189-0.2C6.264,2.326,6.135,2.424,5.988,2.515
	l0.063-0.15C5.865,2.426,5.529,2.867,5.437,3.045l-0.393,0.86c-0.032-0.014-0.263-0.252-0.44-0.358
	c-0.156-0.092-0.363-0.191-0.54-0.273C3.636,3.076,3.329,2.955,2.893,2.795C2.871,3.18,3.118,3.392,3.424,3.599L3.051,3.647
	c0.004,0.164,0.131,0.335,0.228,0.418c0.175,0.149,0.267,0.15,0.428,0.211L3.74,4.293C3.481,4.338,3.558,4.309,3.333,4.455
	c0.004,0.103,0.226,0.32,0.394,0.357l0.374,0.049c-0.026,0.022-0.065,0.041-0.098,0.06C3.966,4.946,3.951,4.96,3.922,4.994
	c-0.05,0.062-0.078,0.133-0.045,0.22l0.434,0.197C4.289,5.457,4.148,5.571,4.1,5.603C3.841,5.784,3.548,5.908,3.177,5.926
	C2.913,5.938,2.657,5.888,2.456,5.808C2.224,5.713,2.127,5.636,1.951,5.499c0.051,0.089,0.168,0.213,0.241,0.29
	C2.871,6.509,3.97,6.908,5.12,6.702c0.703-0.127,1.156-0.368,1.566-0.669C6.754,5.984,6.914,5.84,6.973,5.779
	C7.15,5.594,7.311,5.398,7.426,5.17C7.461,5.101,7.58,4.864,7.576,4.794L7.576,4.794z"/>
</svg>
