<?xml version="1.0" encoding="utf-8"?>
<!-- Generator: Adobe Illustrator 16.0.2, SVG Export Plug-In . SVG Version: 6.00 Build 0)  -->
<!DOCTYPE svg PUBLIC "-//W3C//DTD SVG 1.1//EN" "http://www.w3.org/Graphics/SVG/1.1/DTD/svg11.dtd">
<svg version="1.1" id="Слой_1" xmlns="http://www.w3.org/2000/svg" xmlns:xlink="http://www.w3.org/1999/xlink" x="0px" y="0px"
	 width="10px" height="10px" viewBox="0 0 10 10" enable-background="new 0 0 10 10" xml:space="preserve">
<path fill-rule="evenodd" clip-rule="evenodd" fill="#999999" d="M5,0.737C2.664,0.737,0.771,2.646,0.771,5S2.664,9.262,5,9.262
	c2.334,0,4.229-1.908,4.229-4.262S7.334,0.737,5,0.737z M7.071,5.435c0.356,0.328,0.604,0.595,0.744,0.8
	c0.065,0.103,0.086,0.194,0.063,0.274c-0.023,0.08-0.078,0.118-0.162,0.118L6.79,6.67C6.66,6.679,6.502,6.599,6.313,6.431
	C6.127,6.262,6,6.121,5.935,6.01C5.896,5.945,5.83,5.906,5.73,5.897c-0.096-0.009-0.161,0.038-0.188,0.14L5.513,6.403
	c-0.008,0.075-0.038,0.132-0.084,0.17C5.383,6.609,5.343,6.63,5.311,6.634C5.277,6.639,5.223,6.647,5.148,6.655
	C4.906,6.665,4.691,6.653,4.511,6.62C4.326,6.589,4.16,6.52,4.012,6.417C3.861,6.314,3.743,6.22,3.655,6.136
	c-0.09-0.084-0.219-0.219-0.387-0.407c-0.459-0.654-0.8-1.221-1.024-1.698C2.159,3.844,2.111,3.685,2.103,3.553
	c0.038-0.038,0.108-0.061,0.211-0.07c0.102-0.009,0.252-0.011,0.449-0.006c0.197,0.004,0.313,0.006,0.351,0.006
	c0.094-0.009,0.168,0.043,0.225,0.155C3.57,4.162,3.801,4.569,4.025,4.859C4.174,5,4.274,4.976,4.32,4.789
	c0.018,0,0.028-0.229,0.028-0.688c0.008-0.29-0.108-0.472-0.351-0.547C4.054,3.404,4.25,3.329,4.587,3.329
	c0.084,0,0.188,0.005,0.309,0.015c0.121,0.009,0.187,0.014,0.197,0.014c0.281,0,0.421,0.113,0.421,0.337
	c0,0.028-0.004,0.096-0.014,0.204c-0.01,0.107-0.018,0.211-0.022,0.309C5.473,4.304,5.471,4.407,5.471,4.515
	c0,0.108,0.014,0.199,0.042,0.274C5.542,4.864,5.58,4.91,5.625,4.929c0.05-0.037,0.1-0.073,0.148-0.104
	C5.82,4.792,5.868,4.738,5.92,4.663c0.053-0.075,0.091-0.131,0.121-0.169C6.066,4.457,6.11,4.386,6.167,4.283
	C6.221,4.18,6.255,4.115,6.263,4.086c0.011-0.027,0.045-0.1,0.099-0.217c0.057-0.117,0.086-0.175,0.086-0.175l0.021-0.042
	C6.506,3.568,6.536,3.518,6.56,3.504C6.582,3.49,6.643,3.483,6.734,3.483h0.87c0.104,0,0.164,0.003,0.183,0.007
	c0.018,0.004,0.046,0.025,0.084,0.063C7.938,3.638,7.879,3.82,7.696,4.101C7.515,4.381,7.338,4.615,7.169,4.803
	C6.935,5.065,6.902,5.275,7.071,5.435z"/>
</svg>
